<svg width="548.25" height="248.250006" xmlns="http://www.w3.org/2000/svg" version="1.0" preserveAspectRatio="xMidYMid meet" zoomAndPan="magnify">
 <defs>
  <g id="svg_1"/>
 </defs>
 <g>
  <title>Layer 1</title>
  <path id="svg_2" fill-rule="nonzero" d="m121.19141,99.50781c0.125,-0.01953 0.25,-0.03515 0.375,-0.04687c0.24609,-0.02344 0.49609,-0.04688 0.74218,-0.07031c0.2461,-0.02735 0.4961,-0.04688 0.74219,-0.07813c0.08594,-0.01172 0.16797,-0.02344 0.25391,-0.03906c0.13672,-0.14063 0.27344,-0.28125 0.40234,-0.42188c0.19922,-0.21484 0.38672,-0.4375 0.57422,-0.65625c0.11719,-0.14062 0.23047,-0.28515 0.33984,-0.42968c0.00391,-0.0586 0.00782,-0.11329 0.00782,-0.16797c0,-0.11719 0.0039,-0.23438 -0.00391,-0.35157c-0.00781,-0.11718 -0.01562,-0.22656 -0.02734,-0.33984c-0.01563,-0.11328 -0.03125,-0.22266 -0.05469,-0.33203c-0.04688,-0.21484 -0.11328,-0.42188 -0.19922,-0.61719c-0.08594,-0.1914 -0.19531,-0.375 -0.32031,-0.53906c-0.1211,-0.16797 -0.26563,-0.32031 -0.42188,-0.46484c-0.07812,-0.07032 -0.16015,-0.13672 -0.24218,-0.20313c-0.08594,-0.0625 -0.17188,-0.12891 -0.26172,-0.1875c-0.17188,-0.11328 -0.34766,-0.22266 -0.53516,-0.31641c0.01172,0.07422 0.01953,0.15235 0.02344,0.22657c0.01953,0.33593 -0.02735,0.65625 -0.09375,0.96484c-0.14063,0.61719 -0.39063,1.18359 -0.66797,1.72266c-0.28125,0.54297 -0.60547,1.05078 -0.94922,1.54687c-0.23828,0.33594 -0.48437,0.66797 -0.74219,0.98828c0.22657,-0.05078 0.45703,-0.10156 0.6875,-0.13281c0.1211,-0.02344 0.2461,-0.03906 0.3711,-0.05469" fill="#ffffff"/>
  <path id="svg_3" fill-rule="nonzero" d="m135.78125,105.8125c0.00391,0 0.00391,0 0.00391,0c0.00781,-0.00391 0.01562,-0.00391 0.01953,-0.00781l-0.02344,0.00781" fill="#ffffff"/>
  <path id="svg_4" fill-rule="nonzero" d="m111.79297,107.92969c0.03125,-0.00781 0.0625,-0.01563 0.09766,-0.02344c-0.00391,-0.03125 -0.00782,-0.0625 -0.01172,-0.08594c-0.01172,-0.07031 -0.01563,-0.14843 -0.01563,-0.22265c-0.0039,-0.01563 0,-0.03516 -0.0039,-0.05078c-0.00391,-0.04688 -0.00782,-0.09766 -0.00782,-0.14844c-0.0039,-0.0625 -0.0039,-0.12891 0,-0.19531c0.00391,-0.07032 0.00782,-0.13672 0.01953,-0.20313c0.01172,-0.07031 0.01954,-0.13672 0.04297,-0.20312c0.01953,-0.06641 0.03907,-0.13282 0.0625,-0.19922l0.09375,-0.19532c0.03516,-0.05859 0.07813,-0.11718 0.11719,-0.17187l-4.71094,-10.82031c-0.10156,-0.23438 -0.28906,-0.41407 -0.52734,-0.50782c-0.11328,-0.04296 -0.23047,-0.0664 -0.34766,-0.0664c-0.13281,0 -0.25781,0.02734 -0.38281,0.08203c-0.23437,0.09766 -0.41016,0.28516 -0.50781,0.52344c-0.08985,0.23828 -0.08594,0.49609 0.01562,0.73047l5.2461,12.04687l0.82031,-0.28906" fill="#ffffff"/>
  <path id="svg_5" fill-rule="nonzero" d="m112.60156,107.5c0.01563,0.08984 0.03516,0.17969 0.0625,0.27344c0.00391,0.01953 0.01172,0.03906 0.01953,0.05859c0.05469,-0.00781 0.10938,-0.01562 0.16797,-0.02344c0.03907,-0.0039 0.07813,-0.00781 0.11719,-0.01171c0.83203,-0.08985 1.65625,-0.11719 2.47656,-0.12891c1.71875,-0.02344 3.42188,0.02344 5.125,-0.00391c0.84766,-0.01562 1.69922,-0.03515 2.54688,-0.07812c0.84765,-0.04688 1.6914,-0.09766 2.53515,-0.1836c0.42188,-0.03125 0.84375,-0.08593 1.26563,-0.13281c0.41797,-0.05469 0.83984,-0.10547 1.25781,-0.17187c0.41797,-0.06641 0.83985,-0.125 1.25391,-0.20313l0.61719,-0.11328l0.62109,-0.13672c0.83203,-0.1875 1.66016,-0.38672 2.47656,-0.60547c0.41016,-0.10937 0.81641,-0.22265 1.21485,-0.35547c0.39453,-0.1289 0.80078,-0.26562 1.14062,-0.4375l0.01563,-0.01171l0.0039,0c0.09766,-0.03907 0.17578,-0.07032 0.26172,-0.09766c0.02734,-0.00781 0.05078,-0.01172 0.07422,-0.01953l-0.02344,-0.02735c0.10156,-0.09375 0.38672,-0.42187 0.36719,-0.69921c-0.00391,-0.05469 -0.01953,-0.22266 -0.32031,-0.42188c-0.53907,-0.35547 -0.89453,-0.75 -1.1211,-1.08984l-0.11328,0.11328l-0.23437,0.21875c-0.15625,0.14062 -0.31641,0.28125 -0.48438,0.41015c-0.16406,0.13282 -0.33594,0.25391 -0.50781,0.37891c-0.17188,0.11719 -0.34766,0.23828 -0.52344,0.34766c-0.17969,0.10547 -0.35937,0.21875 -0.54297,0.3164c-0.18359,0.09375 -0.36718,0.20313 -0.55468,0.29297c-0.19141,0.08594 -0.375,0.1875 -0.56641,0.26172c-0.19531,0.07813 -0.38281,0.16406 -0.57813,0.23828l-0.58984,0.21094c-0.19531,0.0625 -0.39453,0.12109 -0.59375,0.17969c-0.19531,0.0625 -0.39844,0.10547 -0.60156,0.15625c-0.19922,0.05078 -0.39844,0.10156 -0.60156,0.13672l-0.60938,0.10546c-0.20312,0.02735 -0.41016,0.05469 -0.61328,0.07813c-0.10156,0.01172 -0.20313,0.02734 -0.30859,0.03516l-0.30469,0.02343c-0.20313,0.00782 -0.41016,0.02344 -0.61328,0.03125c0.19922,-0.05078 0.39843,-0.09765 0.59375,-0.14453l0.30078,-0.07031c0.09765,-0.02344 0.19531,-0.05078 0.29297,-0.07813c0.19531,-0.05859 0.39453,-0.10937 0.58593,-0.16015l0.58204,-0.1836c0.1914,-0.05468 0.38281,-0.12109 0.57421,-0.1914c0.1875,-0.06641 0.37891,-0.12891 0.56641,-0.20703l0.55859,-0.22657l0.55079,-0.24218c0.17968,-0.08203 0.35937,-0.17578 0.53515,-0.26563c0.17969,-0.08594 0.35547,-0.1875 0.53125,-0.27734c0.17578,-0.09375 0.33985,-0.20313 0.51563,-0.30078c0.17187,-0.10157 0.33203,-0.21875 0.5,-0.32422c0.16406,-0.11328 0.32422,-0.22656 0.48437,-0.34375c0.15625,-0.11719 0.31641,-0.23438 0.46485,-0.36328c0.15234,-0.1211 0.30078,-0.25 0.44531,-0.38282l0.21094,-0.20312l0.16796,-0.16797c0.05469,-0.11328 0.08204,-0.23828 0.08204,-0.375c0,-0.14844 -0.03516,-0.30859 -0.09766,-0.46875c-0.06641,-0.15625 -0.15625,-0.30859 -0.26563,-0.44922c-0.10546,-0.14062 -0.23437,-0.26562 -0.37109,-0.3789c-0.27344,-0.22657 -0.60937,-0.35938 -0.875,-0.31641c-0.06641,0.01172 -0.12891,0.03125 -0.18359,0.06641c-0.0625,0.03125 -0.11719,0.08203 -0.15625,0.12109c-0.00782,0.00391 -0.02735,0.02734 -0.04297,0.04687l-0.04688,0.0625l-0.01562,0.01563l0,0.00391l-0.00391,0c0.02735,-0.03907 0.02344,-0.03125 0.01953,-0.02344c-0.0039,0 0,0 0,0l-0.00781,0.00781l-0.07031,0.10938c-0.0625,0.09765 -0.14063,0.18359 -0.21094,0.27343c-0.15234,0.17188 -0.31641,0.33203 -0.49609,0.46875c-0.17969,0.13672 -0.36328,0.26563 -0.5586,0.36328c-0.39062,0.20704 -0.79687,0.35938 -1.21093,0.46875c-0.21094,0.05469 -0.41797,0.09766 -0.62891,0.13282c-0.20703,0.03515 -0.41797,0.0664 -0.62891,0.08203c-0.21093,0.01562 -0.42187,0.02734 -0.63281,0.03125c-0.21094,0 -0.41797,0 -0.62891,-0.01953c0.41407,-0.05078 0.82422,-0.12891 1.22657,-0.22266c0.40234,-0.09766 0.79687,-0.21094 1.17578,-0.36328c0.3789,-0.14453 0.74609,-0.32031 1.07031,-0.53906c0.16406,-0.10938 0.32031,-0.23047 0.46484,-0.35547c0.14063,-0.12891 0.26954,-0.26953 0.38282,-0.41797c0.05078,-0.07813 0.10937,-0.15234 0.15234,-0.23438l0.03125,-0.05859l0.01953,-0.03125l0.00391,-0.00781l0.02344,-0.03516l0.01171,-0.01953l0.04297,-0.06641c0.01563,-0.01953 0.02735,-0.03906 0.05469,-0.07031c0.09766,-0.11719 0.19531,-0.21094 0.31641,-0.28515c0.01953,-0.00782 0.03515,-0.01954 0.05078,-0.03125c0.01172,-0.0625 0.02344,-0.12891 0.03906,-0.19922c0.01172,-0.07422 0.01172,-0.15625 0.01953,-0.24219c0.00781,-0.16797 -0.00781,-0.35156 -0.04297,-0.53906c-0.01172,-0.09766 -0.04687,-0.19141 -0.07031,-0.28907c-0.03125,-0.09375 -0.06641,-0.1914 -0.10937,-0.28515c-0.04688,-0.09375 -0.08594,-0.19141 -0.14454,-0.28125c-0.02734,-0.04688 -0.05468,-0.09766 -0.08203,-0.14063l-0.09375,-0.13672c-0.125,-0.17968 -0.26953,-0.34765 -0.42187,-0.51171c-0.15625,-0.16016 -0.32031,-0.31641 -0.48828,-0.45313c-0.16797,-0.14453 -0.34375,-0.27344 -0.51563,-0.39453c-0.17578,-0.12109 -0.34375,-0.23438 -0.51172,-0.33203c-0.09765,-0.0625 -0.19531,-0.11719 -0.28906,-0.17188c0.07813,0.23438 0.125,0.47657 0.14453,0.71485c0.01563,0.16406 0.01953,0.32422 0.01563,0.48828c-0.00391,0.08203 -0.00782,0.16015 -0.01563,0.24219c0,0.03906 -0.00781,0.07812 -0.01172,0.11718l-0.01172,0.10547c-0.0039,0.03125 -0.00781,0.05469 -0.01171,0.07813l-0.01172,0.0664c-0.00782,0.04297 -0.01563,0.08594 -0.02735,0.125c-0.01953,0.08594 -0.04687,0.16407 -0.07422,0.24219c-0.05468,0.16016 -0.12109,0.3125 -0.19531,0.45703c-0.14844,0.28906 -0.33594,0.55469 -0.54297,0.79688c-0.21093,0.24218 -0.44531,0.45703 -0.69922,0.64843c-0.25,0.1875 -0.51171,0.35547 -0.78515,0.5c-0.27344,0.14844 -0.55469,0.26954 -0.84375,0.375l-0.21485,0.07813l-0.21484,0.07031c-0.14453,0.05078 -0.28906,0.08594 -0.4375,0.12891c-0.29297,0.07422 -0.58984,0.13281 -0.88281,0.17969c-0.14844,0.02734 -0.29688,0.05078 -0.44922,0.0664c-0.14844,0.01953 -0.29688,0.03516 -0.44531,0.04297c-0.29688,0.03125 -0.59766,0.03906 -0.89453,0.04688c0.29296,-0.0625 0.58203,-0.1211 0.87109,-0.19141c0.14453,-0.03125 0.28906,-0.06641 0.42969,-0.10938c0.14453,-0.03515 0.28515,-0.07421 0.42578,-0.11718c0.28125,-0.07813 0.5625,-0.17578 0.83594,-0.27735c0.13281,-0.05468 0.26953,-0.10156 0.40234,-0.16015l0.19922,-0.08594l0.19922,-0.09375c0.25781,-0.12109 0.5039,-0.26953 0.75,-0.41797c0.24218,-0.14844 0.46875,-0.31641 0.67968,-0.5c0.21094,-0.18359 0.40235,-0.38672 0.57422,-0.60156c0.16797,-0.21094 0.31641,-0.44141 0.42578,-0.6836c0.0586,-0.12109 0.10547,-0.24218 0.14454,-0.37109c0.01562,-0.05859 0.03515,-0.12109 0.04687,-0.18359c0.00781,-0.03125 0.01172,-0.0625 0.01563,-0.08985l0.0039,-0.04297l0.00391,-0.03125l0.01562,-0.22265c0.00391,-0.06641 0.00782,-0.13672 0.00782,-0.20313c0.0039,-0.13281 -0.00391,-0.26953 -0.01954,-0.39843c-0.02734,-0.26172 -0.09375,-0.51172 -0.1914,-0.7461c-0.10156,-0.23047 -0.2461,-0.4414 -0.42188,-0.625c-0.34765,-0.37109 -0.83203,-0.6289 -1.35547,-0.79297c-0.26171,-0.08203 -0.53515,-0.14062 -0.80859,-0.1875c-0.00781,0 -0.01172,0 -0.01953,0c0.01562,0.02344 0.03125,0.05469 0.04687,0.08203c0.15625,0.32032 0.20313,0.6836 0.17188,1.01563c-0.03516,0.33203 -0.13672,0.64062 -0.26563,0.92578c-0.1289,0.28516 -0.28906,0.54297 -0.46484,0.78906c-0.08594,0.125 -0.17578,0.2461 -0.26953,0.36328c-0.09375,0.11329 -0.19141,0.23047 -0.28906,0.33985c-0.19922,0.21875 -0.41016,0.42969 -0.625,0.63281c-0.21094,0.20313 -0.4375,0.39453 -0.66407,0.58203c-0.1289,0.10156 -0.25781,0.20313 -0.39453,0.30078c0.1211,-0.01562 0.23828,-0.03515 0.35547,-0.05468c0.1211,-0.01563 0.23828,-0.03907 0.35547,-0.06641c0.11719,-0.02344 0.23438,-0.04688 0.35156,-0.07422c0.23438,-0.03906 0.45703,-0.11328 0.67969,-0.17578c0.22266,-0.05469 0.43359,-0.13672 0.64063,-0.21484c0.21093,-0.07032 0.39843,-0.17579 0.58984,-0.26172c0.09766,-0.04297 0.18359,-0.09766 0.26953,-0.15235c0.08594,-0.05468 0.17578,-0.10937 0.25781,-0.16015c0.07813,-0.0625 0.15235,-0.1211 0.22657,-0.17969c0.03906,-0.03125 0.07421,-0.05859 0.11328,-0.08984c0.03515,-0.03125 0.0625,-0.0625 0.09375,-0.09766c0.0664,-0.06641 0.1289,-0.12891 0.1914,-0.19141c0.05078,-0.07031 0.10157,-0.14062 0.15235,-0.20703c0.02343,-0.03125 0.05078,-0.0664 0.07422,-0.09765c0.01953,-0.03907 0.03906,-0.07032 0.05859,-0.10938c0.03906,-0.06641 0.07812,-0.13281 0.10937,-0.19922c0.0586,-0.14062 0.1211,-0.26562 0.15235,-0.39453c0.01562,-0.0625 0.03515,-0.12109 0.05469,-0.17969c0.01171,-0.05468 0.02343,-0.11328 0.03125,-0.16797c0.02343,-0.10546 0.03515,-0.19921 0.05078,-0.28515c0.01172,-0.08203 0.01953,-0.15625 0.02343,-0.21094c0.01172,-0.11719 0.01954,-0.17969 0.01954,-0.17969c0,0 -0.00391,0.0625 -0.01172,0.17969c0,0.05859 -0.00391,0.12891 -0.01563,0.21484c-0.0039,0.08594 -0.01172,0.17969 -0.03515,0.28907c-0.00782,0.05468 -0.01563,0.10937 -0.02344,0.16797c-0.01563,0.0625 -0.03125,0.12109 -0.04688,0.1875c-0.02734,0.1289 -0.08203,0.26171 -0.13281,0.40625c-0.03125,0.07031 -0.07031,0.14062 -0.10547,0.21484c-0.01562,0.03516 -0.03515,0.07422 -0.05469,0.10937c-0.01953,0.03907 -0.04687,0.07032 -0.07031,0.10938c-0.04687,0.07031 -0.09765,0.14453 -0.14844,0.21875c-0.0625,0.06641 -0.12109,0.13672 -0.1875,0.20703c-0.03125,0.03516 -0.05859,0.07422 -0.09375,0.10938c-0.03515,0.03125 -0.07421,0.0625 -0.10937,0.09765c-0.07422,0.0625 -0.15234,0.12891 -0.23047,0.19531c-0.08203,0.0586 -0.16797,0.11719 -0.25781,0.17969c-0.08594,0.0586 -0.17188,0.1211 -0.26953,0.16797c-0.19141,0.10156 -0.38282,0.21875 -0.59766,0.30078c-0.10156,0.04297 -0.20703,0.08985 -0.31641,0.13672c-0.10546,0.05078 -0.21875,0.07813 -0.32812,0.11719c-0.22656,0.07422 -0.45313,0.16015 -0.6875,0.21484c-0.11719,0.03125 -0.23438,0.0625 -0.35547,0.09375c-0.11719,0.03125 -0.23828,0.0625 -0.35937,0.08203c-0.24219,0.05078 -0.48829,0.09766 -0.73438,0.14844c-0.24609,0.04297 -0.49219,0.07422 -0.73828,0.10938c-0.24609,0.03906 -0.49219,0.07421 -0.73828,0.10937c-0.11719,0.01563 -0.23828,0.03906 -0.35547,0.0625c-0.12109,0.02344 -0.24219,0.03906 -0.35938,0.07031c-0.46875,0.09375 -0.92187,0.22657 -1.34375,0.38282c-0.42187,0.16015 -0.8164,0.34765 -1.15625,0.5625c-0.34375,0.21484 -0.63671,0.45703 -0.87109,0.70703c-0.23437,0.25 -0.41406,0.51172 -0.53516,0.7539c-0.125,0.24219 -0.19921,0.46485 -0.24609,0.65235c-0.03516,0.16015 -0.05078,0.29297 -0.05859,0.38672c0.10156,0.01562 0.20312,0.03125 0.30468,0.04296c0.86329,0.10157 1.7461,0.09375 2.62891,0.04688c0.88281,-0.04688 1.76172,-0.14844 2.63281,-0.28906c0.875,-0.14063 1.74219,-0.33203 2.59375,-0.57032c0.85157,-0.24218 1.69141,-0.53906 2.48828,-0.92187c0.39844,-0.1875 0.78907,-0.40234 1.16016,-0.64453c0.36719,-0.24219 0.71484,-0.51953 1.03125,-0.83203c0.30859,-0.31641 0.57813,-0.67188 0.76563,-1.07422c0.09375,-0.19922 0.17187,-0.40625 0.21875,-0.625c0.05078,-0.21875 0.07421,-0.4375 0.07812,-0.66016c0.00391,0.22266 -0.01562,0.44531 -0.05469,0.66406c-0.04687,0.21875 -0.11328,0.4336 -0.20312,0.64063c-0.17969,0.41406 -0.44141,0.78516 -0.7461,1.11328c-0.30468,0.32813 -0.65234,0.62109 -1.01953,0.875c-0.36718,0.26172 -0.7539,0.49219 -1.15234,0.69531c-0.79688,0.41407 -1.63672,0.73828 -2.49219,1.01172c-0.85547,0.27344 -1.72656,0.48828 -2.60547,0.66406c-0.8789,0.17188 -1.76953,0.30079 -2.66406,0.37891c-0.89844,0.07422 -1.80078,0.11328 -2.71094,0.03516c-0.11718,-0.01172 -0.23047,-0.02344 -0.34765,-0.03907l-0.17578,-0.02734l-0.16407,-0.02734c-0.11328,-0.01953 -0.21093,-0.03907 -0.3164,-0.05469c-0.10547,-0.00781 -0.21094,-0.02734 -0.3125,-0.03125c-0.21094,-0.01172 -0.41407,-0.00391 -0.61328,0.01953c-0.19922,0.02734 -0.38672,0.07813 -0.5586,0.15625c-0.34765,0.15625 -0.60937,0.43359 -0.76953,0.78125c-0.08203,0.17578 -0.13672,0.36328 -0.17578,0.55859c-0.01563,0.07813 -0.02344,0.15625 -0.03125,0.23829c0.19531,0.01953 0.55078,0.05859 0.99609,0.10546c0.70703,0.07422 1.64453,0.16407 2.58594,0.23438c0.46875,0.03516 0.9375,0.05859 1.38281,0.08203c0.21875,0.00391 0.4336,0.01172 0.63672,0.01563c0.19922,0 0.39063,0.00781 0.57031,0.0039c0.17579,-0.00781 0.33985,-0.0039 0.48047,-0.01562c0.14453,-0.00782 0.26953,-0.01172 0.3711,-0.02344c0.20312,-0.02734 0.32422,-0.04297 0.32422,-0.04297c0,0 -0.11719,0.02734 -0.31641,0.07422c-0.10156,0.02344 -0.22656,0.03906 -0.37109,0.0625c-0.14454,0.02734 -0.30469,0.03906 -0.48047,0.0625c-0.17578,0.02344 -0.3711,0.03516 -0.57422,0.05859c-0.20313,0.01563 -0.41797,0.02735 -0.64063,0.04297c-0.44531,0.02735 -0.91797,0.04688 -1.39062,0.0586c-0.94922,0.02734 -1.89844,0.03125 -2.61328,0.03125c-0.70703,-0.00782 -1.1836,-0.00782 -1.1836,-0.00782c-0.03125,-0.0039 -0.0664,-0.00781 -0.09375,-0.01562l-0.01953,0.01172c-0.04297,0.01953 -0.08594,0.03906 -0.11719,0.0664l-0.10156,0.07813c-0.03906,0.02344 -0.05859,0.0625 -0.08984,0.08984c-0.03125,0.03125 -0.0586,0.0586 -0.07813,0.09375c-0.01953,0.03516 -0.04687,0.06641 -0.0625,0.10156c-0.01562,0.03516 -0.03515,0.07422 -0.05078,0.10938c-0.01172,0.03906 -0.01953,0.07812 -0.03125,0.12109c-0.01562,0.03516 -0.01562,0.08203 -0.02344,0.1211c-0.00781,0.04297 -0.00781,0.08593 -0.00781,0.1289c-0.0039,0.04688 0,0.08985 0.00391,0.13672c0.0039,0.04297 0.0039,0.08985 0.01562,0.13672" fill="#ffffff"/>
  <path id="svg_6" fill-rule="nonzero" d="m134.3125,102.24609l-0.03516,0.03516c-0.00781,0.01172 -0.01171,0.02344 -0.01953,0.03516l0.05469,-0.07032" fill="#ffffff"/>
  <path id="svg_7" fill-rule="nonzero" d="m112.81641,114.12109c3.10937,0.54297 7.24609,0.83985 11.64843,0.83985c10.65235,0 15.87891,-1.52344 16.19532,-2.60547c0,-0.00781 0.0039,-0.01563 0.00781,-0.02344c0.00391,-0.0039 0.00391,-0.01172 0.00781,-0.02344c0.6836,-1.57031 0.19922,-1.8125 -0.41406,-2.11718c-0.08203,-0.03907 -0.16797,-0.08203 -0.25,-0.12891c-0.01563,0.01172 -0.03125,0.02344 -0.05078,0.03516c-0.06641,0.04297 -0.13672,0.09765 -0.22266,0.15234c-0.08594,0.05078 -0.17969,0.11328 -0.28125,0.17578c-0.10156,0.0586 -0.21875,0.125 -0.33594,0.19531c-0.12109,0.07032 -0.25,0.13672 -0.38671,0.20704c-0.13672,0.0664 -0.28125,0.14843 -0.4336,0.21484c-0.15625,0.07031 -0.3125,0.14453 -0.48047,0.21875c-0.16406,0.07422 -0.33984,0.14062 -0.51953,0.21484c-0.08594,0.03516 -0.17578,0.07422 -0.26953,0.10938c-0.09375,0.03906 -0.1875,0.07031 -0.28125,0.10547c-0.19141,0.0664 -0.38281,0.13281 -0.58203,0.20312c-0.19922,0.06641 -0.40234,0.125 -0.60547,0.1875c-0.21094,0.0625 -0.41406,0.13281 -0.62891,0.17969c-0.21093,0.05469 -0.42578,0.10937 -0.64062,0.16016c-0.10938,0.03125 -0.21484,0.05859 -0.32422,0.08203l-0.32422,0.0664c-0.4375,0.08203 -0.86719,0.1836 -1.30469,0.24219c-0.21484,0.03125 -0.42968,0.06641 -0.63671,0.09766c-0.10938,0.01562 -0.21485,0.03125 -0.31641,0.04687c-0.10547,0.01172 -0.21094,0.02344 -0.3125,0.03516c-0.41406,0.03906 -0.8125,0.08594 -1.19141,0.12109c-0.3789,0.02344 -0.73437,0.04688 -1.0664,0.0625c-0.16797,0.01172 -0.32422,0.01953 -0.47657,0.02735c-0.14843,0.0039 -0.29296,0.0039 -0.42578,0.00781c-0.26953,0.0039 -0.5039,0.00781 -0.69531,0.01172c-0.38672,0.0039 -0.60937,0.00781 -0.60937,0.00781c0,0 0.22265,-0.01563 0.60546,-0.04297c0.19141,-0.01172 0.42579,-0.02734 0.69532,-0.04687c0.13281,-0.00782 0.27343,-0.01954 0.42578,-0.02735c0.14844,-0.01953 0.30859,-0.03515 0.46875,-0.05469c0.32812,-0.03906 0.68359,-0.07812 1.0625,-0.12109c0.37109,-0.05469 0.76562,-0.12109 1.17187,-0.1875c0.10157,-0.01562 0.20313,-0.03125 0.30469,-0.04687c0.10547,-0.01954 0.20703,-0.04297 0.3125,-0.06641c0.20703,-0.04297 0.41406,-0.08594 0.625,-0.12891c0.42578,-0.08203 0.84766,-0.20312 1.27344,-0.30859l0.3164,-0.08203c0.10547,-0.03125 0.20704,-0.06641 0.3125,-0.09766c0.20704,-0.0625 0.41407,-0.1289 0.6211,-0.1914c0.20703,-0.0586 0.40234,-0.14063 0.60156,-0.20704c0.19922,-0.07421 0.39453,-0.14062 0.58594,-0.21484c0.1875,-0.07812 0.37109,-0.15625 0.55469,-0.23047c0.08593,-0.03906 0.17968,-0.07422 0.26562,-0.11328c0.08594,-0.04297 0.17188,-0.08203 0.25781,-0.12109c0.16797,-0.08203 0.33203,-0.15625 0.48828,-0.23438c0.15625,-0.08203 0.30469,-0.16015 0.44922,-0.23828c0.14453,-0.07031 0.27344,-0.15625 0.40235,-0.22656c0.125,-0.07813 0.25,-0.14453 0.35547,-0.21875c0.10937,-0.07031 0.21093,-0.13672 0.30468,-0.19531c0.09375,-0.06641 0.17578,-0.125 0.25,-0.17969c0.0625,-0.04297 0.11328,-0.08203 0.15625,-0.11719c-0.03515,-0.09375 -0.0625,-0.20312 -0.0625,-0.32422l0,-0.04297c0.05078,-0.51172 -0.03906,-0.87109 -0.26562,-1.07812c-0.27344,-0.2461 -0.70313,-0.23438 -0.88281,-0.21875c-0.01172,0.02344 -0.01954,0.04297 -0.02735,0.05859c-0.09765,0.17969 -0.22656,0.32813 -0.35937,0.45313c-0.27735,0.25 -0.57813,0.42187 -0.88282,0.57812c-0.61328,0.30469 -1.25,0.51563 -1.89062,0.70313c-0.64453,0.18359 -1.29297,0.32812 -1.94141,0.45312c-0.05859,0.01563 -0.11718,0.02344 -0.17578,0.03125l0,0.00391c-0.00781,0 -0.01562,0 -0.02344,0.0039c-0.54687,0.09766 -1.08984,0.1836 -1.64062,0.25782c-0.65625,0.08984 -1.3125,0.16015 -1.97266,0.21484c-0.32812,0.02734 -0.65625,0.05078 -0.98828,0.0625c-0.32812,0.01563 -0.66015,0.02344 -0.98828,0.01563c0.65625,-0.02735 1.3125,-0.11329 1.96484,-0.20313c0.65235,-0.08984 1.30079,-0.19531 1.94922,-0.32031c0.5625,-0.10156 1.1211,-0.21875 1.67188,-0.34766c0.68359,-0.16015 1.36328,-0.34765 2.02344,-0.55859c0.62109,-0.20313 1.23437,-0.4336 1.78906,-0.73438c0.27734,-0.15234 0.54297,-0.32422 0.7539,-0.53125c0.10157,-0.09765 0.1836,-0.20703 0.23829,-0.3164c0.0039,0 0.0039,-0.00391 0.0039,-0.00391c0.01563,-0.02734 0.02344,-0.05859 0.03516,-0.08203c0.0039,-0.01172 0.00781,-0.02344 0.01172,-0.03516l0.0039,-0.01562l0.00782,-0.02735l0.00781,-0.05078l0,-0.04687l0.00781,-0.11719c0,-0.02734 0,-0.05859 0,-0.08984c0.00781,-0.28125 -0.00391,-0.5586 -0.06641,-0.8125c-0.0664,-0.28125 -0.20312,-0.51563 -0.39843,-0.65625c-0.19532,-0.14063 -0.46875,-0.1836 -0.75391,-0.16016c-0.08594,0.00781 -0.17187,0.01953 -0.25781,0.03906c-0.01172,0 -0.02735,0.00391 -0.04297,0.00782c-0.04297,0.01171 -0.08594,0.01953 -0.12891,0.03125c-0.14062,0.03515 -0.28906,0.08593 -0.41015,0.14062c-0.41016,0.22266 -0.8125,0.35547 -1.21875,0.49609c-0.41407,0.14063 -0.82813,0.26563 -1.23828,0.38282c-0.83204,0.23828 -1.66016,0.45312 -2.4961,0.65234l-0.6289,0.14453l-0.03907,0.01172l-0.04687,0.01172l-0.07813,0.01172l-0.16015,0.03125l-0.31641,0.05859c-0.42578,0.08203 -0.84766,0.14844 -1.27734,0.21875c-0.42188,0.06641 -0.85157,0.1211 -1.27735,0.17578c-0.42578,0.05078 -0.85156,0.10547 -1.28125,0.14453c-0.85937,0.08985 -1.71484,0.14844 -2.57422,0.19141c-0.85937,0.04297 -1.71875,0.05859 -2.57421,0.06641c-0.85938,0.00781 -1.71485,0 -2.57422,-0.00782c-0.85157,-0.00781 -1.70703,-0.02343 -2.55469,-0.02734c-0.75391,0 -1.50391,0.01563 -2.24609,0.07813c-0.09375,0.00781 -0.1836,0.01171 -0.27735,0.01953c-0.09375,0.01172 -0.1875,0.02343 -0.28125,0.03515c-0.11719,0.01563 -0.23828,0.03125 -0.35547,0.05078c-0.19531,0.03516 -0.39062,0.07032 -0.57812,0.1211c-0.27344,0.07422 -0.53906,0.16015 -0.78906,0.27344c-0.0625,0.03125 -0.125,0.05859 -0.1836,0.09375c-0.02344,0.01171 -0.05078,0.02734 -0.07812,0.04296c-0.01563,0.00782 -0.03125,0.01563 -0.04688,0.02344l-0.0664,0.03516l-0.05469,0.04297l-0.11719,0.08203c-0.08203,0.05469 -0.14453,0.125 -0.21484,0.1875c-0.03516,0.03125 -0.07032,0.0664 -0.10157,0.09765l-0.08203,0.10157l-0.08593,0.10547c-0.03125,0.03515 -0.05469,0.08593 -0.08594,0.13281c-0.21094,0.32812 -0.33203,0.68359 -0.23828,0.98047c0.00781,0.02734 0.01562,0.05078 0.03125,0.07812c0.03515,0.08985 0.08984,0.17578 0.16015,0.25391c0.14063,0.16015 0.32813,0.29297 0.53907,0.40625c0.34765,0.18359 0.74218,0.3164 1.14062,0.42187c0.80859,0.20703 1.64844,0.32032 2.49219,0.39844c0.84375,0.07422 1.69531,0.11719 2.54687,0.13281c0.85157,0.01563 1.70703,0.01172 2.5586,-0.0039c0.85156,-0.02344 1.70703,-0.05078 2.55859,-0.10157c-0.84766,0.10547 -1.69922,0.19532 -2.55078,0.25782c-0.85156,0.0664 -1.70703,0.11328 -2.56641,0.13281c-0.85547,0.01953 -1.71484,0.01953 -2.57422,-0.02734c-0.85937,-0.04688 -1.72265,-0.12891 -2.57812,-0.32032c-0.42969,-0.09765 -0.85547,-0.22265 -1.26953,-0.42578c-0.20313,-0.10547 -0.41016,-0.22656 -0.58985,-0.39453c-0.01171,-0.00781 -0.01953,-0.01953 -0.02734,-0.02734c-1.11719,0.4414 -1.15234,0.76562 -1.15234,0.80078c0,0.30469 0.94531,1.03906 4.53125,1.66015" fill="#ffffff"/>
  <path id="svg_8" fill-rule="nonzero" d="m141.32813,114.81641c0.01171,0.04297 0.01953,0.08984 0.01171,0.13672l-5.63671,35.53515c-0.01954,0.23438 -0.25,2.5625 -2.04688,3.125c-1.52344,0.69922 -6.67969,1.08594 -10.96875,1.08594c-2.39844,0 -4.52344,-0.12109 -5.59375,-0.375c-2.80469,-0.66797 -3.59375,-2.65625 -3.625,-2.73828c-0.00781,-0.02344 -0.01172,-0.04297 -0.01562,-0.06641l-5.86329,-36.5664c-0.00781,-0.05469 0,-0.10547 0.01563,-0.15625c-0.85156,-0.46094 -1.33203,-0.98438 -1.33203,-1.56641c0,-0.74609 0.76562,-1.41797 2.27344,-2c0.14453,-0.07813 0.30078,-0.15234 0.47265,-0.22656c-0.07031,-0.2461 -0.0625,-0.51172 -0.0039,-0.74219c0.02734,-0.12109 0.0664,-0.24219 0.11718,-0.35156l0.03516,-0.08203l0.00781,-0.01172l0.01172,-0.02735l0.00781,-0.01562l0.02344,-0.03516l0.07813,-0.14062c0.02734,-0.04688 0.04687,-0.08985 0.08203,-0.14063l0.11328,-0.14844l0.11719,-0.14843c0.03906,-0.04688 0.08203,-0.08594 0.12109,-0.12891c0.08594,-0.08594 0.16797,-0.17187 0.26562,-0.23828l0.14063,-0.10938l0.07422,-0.05468l0.07422,-0.04297c0.03906,-0.02735 0.08203,-0.05078 0.125,-0.07422l-5.26563,-12.08594c-0.17187,-0.39062 -0.17969,-0.82031 -0.02344,-1.21484c0.15625,-0.39844 0.45704,-0.71094 0.84375,-0.87891c0.39063,-0.16797 0.82032,-0.17578 1.21485,-0.01953c0.39844,0.15234 0.71094,0.45313 0.8789,0.84375l4.62891,10.625c0.03516,-0.01953 0.07422,-0.03906 0.10938,-0.05469c0.0039,-0.05078 0.0039,-0.10547 0.01171,-0.15234c0.01172,-0.125 0.03516,-0.24609 0.0586,-0.36719c0.05469,-0.23828 0.13281,-0.47656 0.24609,-0.70312c0.11719,-0.22657 0.26953,-0.44141 0.45703,-0.6211c0.1875,-0.18359 0.41016,-0.32422 0.64844,-0.42578c0.23438,-0.09765 0.48438,-0.15625 0.73047,-0.18359c0.24219,-0.01953 0.48437,-0.01953 0.71875,0.0039c0.09766,0.00391 0.19141,0.01954 0.28516,0.03516c0.01562,-0.12109 0.04296,-0.26562 0.09375,-0.43359c0.0664,-0.23438 0.17578,-0.50782 0.34375,-0.80078c0.16406,-0.28907 0.39453,-0.58594 0.67968,-0.86719c0.28907,-0.28125 0.64063,-0.54297 1.03125,-0.76172c0.39453,-0.22266 0.82813,-0.40625 1.28516,-0.55078c0.18359,-0.0586 0.36719,-0.10547 0.55078,-0.15625c0.08984,-0.13672 0.17969,-0.26953 0.26563,-0.41016c0.16015,-0.25 0.3125,-0.5039 0.45703,-0.76172c0.29687,-0.51562 0.5625,-1.04687 0.79297,-1.58203c0.22656,-0.53906 0.41406,-1.09765 0.50781,-1.65234c0.04297,-0.27735 0.05859,-0.55469 0.02734,-0.8125c-0.03125,-0.26172 -0.11328,-0.5 -0.2539,-0.6875l-0.51954,-0.69141l0.875,0.1836c0.14454,0.03125 0.26172,0.0625 0.38282,0.09765c0.125,0.03906 0.24218,0.08203 0.36328,0.12891c0.23828,0.09375 0.47265,0.20703 0.6914,0.34765c0.10938,0.06641 0.21875,0.14063 0.32032,0.22266c0.10156,0.08203 0.20312,0.16797 0.29687,0.26563c0.1836,0.18359 0.35156,0.39453 0.48828,0.625c0.13672,0.23046 0.24219,0.48046 0.3086,0.73828c0.07031,0.2539 0.09765,0.51562 0.09765,0.77343c0,0.12891 -0.01172,0.25782 -0.02734,0.38282c-0.01563,0.125 -0.03516,0.25 -0.07031,0.37109c-0.00391,0.02344 -0.01172,0.04688 -0.01563,0.07031c0.125,-0.17968 0.24219,-0.36328 0.35156,-0.55468c0.14063,-0.24219 0.26172,-0.4961 0.35547,-0.75c0.09375,-0.25391 0.15625,-0.51172 0.16407,-0.76172c0.00781,-0.25 -0.04297,-0.48047 -0.15625,-0.67969c-0.10547,-0.20313 -0.28125,-0.37109 -0.48829,-0.51563l-0.83203,-0.57421l1.01563,-0.04297c0.17578,-0.00782 0.32031,-0.00391 0.48047,0.0039c0.16015,0.00782 0.3125,0.01953 0.46875,0.04297c0.3125,0.03516 0.62109,0.09766 0.92968,0.19141c0.30079,0.08984 0.60157,0.21094 0.89063,0.36719c0.24219,0.13671 0.47656,0.30078 0.68359,0.49609c0.05078,0.02734 0.11328,0.05859 0.19141,0.10547c0.18359,0.10547 0.4375,0.25781 0.73437,0.46094c0.14844,0.10156 0.30469,0.21093 0.46875,0.33593c0.16407,0.1211 0.32813,0.25782 0.5,0.40235c0.16797,0.14843 0.33985,0.30468 0.50391,0.47656c0.16406,0.16406 0.32031,0.34766 0.46875,0.53516c0.14453,0.1914 0.28516,0.39062 0.39453,0.59765c0.03125,0.05469 0.0586,0.10547 0.08594,0.15625c0.02734,0.05469 0.05078,0.10547 0.07422,0.16016c0.05078,0.10156 0.08203,0.21484 0.125,0.32031c0.03125,0.10938 0.0625,0.21484 0.08594,0.32031c0.01562,0.10938 0.03906,0.21094 0.04296,0.3125c0.01954,0.20703 0.01172,0.40235 -0.01562,0.57813c-0.01563,0.08594 -0.02344,0.17187 -0.04688,0.25c-0.01171,0.04687 -0.02734,0.08984 -0.03906,0.13672c0.08203,-0.03907 0.16797,-0.06641 0.25391,-0.08594c0.28125,-0.0625 0.55469,-0.02344 0.79687,0.05469c0.24219,0.08203 0.45703,0.19922 0.64844,0.34375c0.19531,0.14062 0.36328,0.3125 0.51563,0.49609c0.14843,0.1875 0.27343,0.39453 0.37109,0.62109c0.09766,0.22657 0.16016,0.48047 0.16797,0.7461c0,0.00781 -0.00391,0.01172 -0.00391,0.01953c0.03906,0.125 0.29297,0.82422 1.1836,1.41406c0.51171,0.33594 0.64062,0.73047 0.66406,1.00391c0.01562,0.23828 -0.04297,0.45703 -0.12891,0.64844c0.10938,0.0039 0.21875,0.01953 0.33203,0.04296c0.19141,0.04297 0.38672,0.125 0.5586,0.25c0.33984,0.25391 0.52343,0.64454 0.59765,1.00391c0.0625,0.27734 0.07813,0.55078 0.07032,0.81641c0.34765,-0.00391 0.86718,0.0625 1.26953,0.42187c0.41015,0.3711 0.58203,0.9375 0.51562,1.69141c0.00391,0.0039 0.00391,0.01172 0.00781,0.01953c0.01954,0.04297 0.07032,0.08984 0.16797,0.14844c0.0625,0.03515 0.14453,0.07812 0.25,0.1289c0.72266,0.35938 1.4336,0.8711 1.05469,2.30469c0.73047,0.42188 1.04297,0.85156 1.04297,1.41797c0,0.58984 -0.5,1.12109 -1.37109,1.58594zm24.04296,-3.78516l-28.625,-28.62891c-7.08984,-7.08984 -18.6914,-7.08984 -25.78125,0l-28.6289,28.62891c-7.08985,7.08984 -7.08985,18.69141 0,25.78125l28.6289,28.625c7.08985,7.08984 18.69141,7.08984 25.78125,0l28.625,-28.625c7.08985,-7.08984 7.08985,-18.69141 0,-25.78125" fill="#ffffff"/>
  <path id="svg_9" fill-rule="nonzero" d="m141.45313,112.42969c-0.02344,0.05859 -0.04688,0.11328 -0.07422,0.17578c-0.3125,0.96094 -2.10157,1.73437 -5.32032,2.29687c-3.03906,0.52735 -7.15625,0.82032 -11.59375,0.82032c-4.44531,0 -8.6289,-0.30078 -11.77734,-0.84766c-1.54687,-0.26953 -2.76953,-0.58594 -3.62891,-0.9375c-1.03515,-0.42578 -1.53515,-0.91016 -1.53515,-1.47656c0,-0.00391 0,-0.01172 0,-0.02344c-0.53125,0.36328 -0.61719,0.64844 -0.61719,0.79297c0,0.60156 1.3125,1.51562 4.98828,2.26562c3.35938,0.6836 7.83203,1.0625 12.58985,1.0625c4.76171,0 9.23437,-0.3789 12.58984,-1.0625c3.67969,-0.75 4.98828,-1.66406 4.98828,-2.26562c0,-0.21875 -0.07812,-0.46875 -0.60937,-0.80078" fill="#ffffff"/>
  <path id="svg_10" fill-rule="nonzero" d="m140.66406,115.12891c-0.60937,0.25 -1.33593,0.48437 -2.15234,0.6914l-5.34375,34.67188l4.68359,-34.51563c-3.53515,0.80078 -8.53125,1.21875 -13.36718,1.21875c-4.96094,0 -10.10157,-0.4414 -13.64844,-1.28125c0,0 -0.00391,0 -0.00391,0l4.6875,34.55469l-5.34765,-34.71875c0,-0.00391 0,-0.00391 0,-0.00391c-0.72266,-0.19531 -1.3711,-0.40625 -1.91407,-0.63671l0,0.0039c-0.0039,-0.0039 -0.0039,-0.0039 -0.00781,-0.0039l5.81641,36.27343c0.10156,0.23047 0.84375,1.76953 3.16797,2.32422c2.58203,0.61328 11.96875,0.40625 15.33203,-0.41015c0.34765,-0.08204 0.63281,-0.17188 0.83984,-0.26954c0.01563,-0.00781 0.02734,-0.01171 0.04297,-0.01953c1.45312,-0.4375 1.61719,-2.55468 1.62109,-2.57812c0,-0.00781 0,-0.01563 0,-0.02735l5.59766,-35.27734c0,0.00391 -0.00391,0.00391 -0.00391,0.00391" fill="#ffffff"/>
  <g id="svg_11" fill="#424242">
   <g id="svg_12">
    <g id="svg_13">
     <path fill="#ffffff" id="svg_14" d="m239.56222,97.16128l2.90625,0l0,27.39063l-2.90625,0l0,-27.39063zm0,0"/>
    </g>
   </g>
  </g>
  <g id="svg_15" fill="#424242">
   <g id="svg_16">
    <g id="svg_17">
     <path fill="#ffffff" id="svg_18" d="m263.27735,124.78629c-2.71875,0 -5.16797,-0.59766 -7.34375,-1.79688c-2.17969,-1.19531 -3.88672,-2.85938 -5.125,-4.98438c-1.24219,-2.125 -1.85938,-4.5039 -1.85938,-7.14062c0,-2.63281 0.61719,-5.01563 1.85938,-7.14063c1.23828,-2.125 2.95312,-3.78515 5.14062,-4.98437c2.19531,-1.20703 4.64844,-1.8125 7.35938,-1.8125c2.03125,0 3.90625,0.33984 5.625,1.01562c1.72656,0.67969 3.1914,1.67188 4.39062,2.98438l-1.82812,1.82812c-2.14844,-2.16406 -4.85157,-3.25 -8.10938,-3.25c-2.16797,0 -4.13672,0.5 -5.90625,1.5c-1.77344,0.99219 -3.16406,2.34375 -4.17187,4.0625c-1,1.71875 -1.5,3.65235 -1.5,5.79688c0,2.13672 0.5,4.0625 1.5,5.78125c1.00781,1.71875 2.39843,3.07812 4.17187,4.07812c1.76953,0.99219 3.73828,1.48438 5.90625,1.48438c3.28906,0 5.99219,-1.09766 8.10938,-3.29688l1.82812,1.84375c-1.19922,1.30469 -2.66797,2.30469 -4.40625,3c-1.73047,0.6875 -3.60937,1.03126 -5.64062,1.03126zm0,0"/>
    </g>
   </g>
  </g>
  <g id="svg_19" fill="#424242">
   <g id="svg_20">
    <g id="svg_21">
     <path fill="#ffffff" id="svg_22" d="m298.86066,122.05191l0,2.5l-19.375,0l0,-27.39063l18.78125,0l0,2.5l-15.875,0l0,9.75l14.15625,0l0,2.46875l-14.15625,0l0,10.17188l16.46875,0zm0,0"/>
    </g>
   </g>
  </g>
  <g id="svg_23" fill="#424242">
   <g id="svg_24">
    <g id="svg_25"/>
   </g>
  </g>
  <g id="svg_26" fill="#424242">
   <g id="svg_27">
    <g id="svg_28">
     <path fill="#ffffff" id="svg_29" d="m344.34299,97.16128l0,27.39063l-2.78125,0l0,-21.90625l-10.76562,18.42187l-1.35938,0l-10.76562,-18.3125l0,21.79688l-2.78125,0l0,-27.39063l2.39062,0l11.89063,20.3125l11.78125,-20.3125l2.39062,0zm0,0"/>
    </g>
   </g>
  </g>
  <g id="svg_30" fill="#424242">
   <g id="svg_31">
    <g id="svg_32">
     <path fill="#ffffff" id="svg_33" d="m372.60758,122.05191l0,2.5l-19.375,0l0,-27.39063l18.78125,0l0,2.5l-15.875,0l0,9.75l14.15625,0l0,2.46875l-14.15625,0l0,10.17188l16.46875,0zm0,0"/>
    </g>
   </g>
  </g>
  <g id="svg_34" fill="#424242">
   <g id="svg_35">
    <g id="svg_36">
     <path fill="#ffffff" id="svg_37" d="m194.26444,150.52452l2.31641,0l0,-0.28516c-0.6836,0 -0.83594,-0.33203 -0.83594,-1.33203l0,-7.8164l4.66797,9.43359l1.30078,0l4.66406,-9.43359l0,7.8164c0,1 -0.14844,1.33203 -0.83203,1.33203l0,0.28516l2.83203,0l0,-0.28516c-0.69922,0 -0.83203,-0.33203 -0.83203,-1.33203l0,-7.76562c0,-1 0.13281,-1.33203 0.83203,-1.33203l0,-0.28516l-1.04687,0c-0.6836,0.01562 -0.9336,0.08203 -1.35157,0.94922l-4.61718,9.33594l-4.61719,-9.33594c-0.4336,-0.86719 -0.64844,-0.9336 -1.44922,-0.94922l-1.03125,0l0,0.28516c0.68359,0 0.83203,0.33203 0.83203,1.33203l0,7.76562c0,1 -0.14844,1.33203 -0.83203,1.33203l0,0.28516zm0,0"/>
    </g>
   </g>
  </g>
  <g id="svg_38" fill="#424242">
   <g id="svg_39">
    <g id="svg_40">
     <path fill="#ffffff" id="svg_41" d="m217.00252,150.52452l2.83203,0l0,-0.28516c-0.68359,0 -0.83203,-0.33203 -0.83203,-1.33203l0,-7.76562c0,-1 0.14844,-1.33203 0.83203,-1.33203l0,-0.28516l-2.83203,0l0,0.28516c0.68359,0 0.83203,0.33203 0.83203,1.33203l0,7.76562c0,1 -0.14844,1.33203 -0.83203,1.33203l0,0.28516zm0,0"/>
    </g>
   </g>
  </g>
  <g id="svg_42" fill="#424242">
   <g id="svg_43">
    <g id="svg_44">
     <path fill="#ffffff" id="svg_45" d="m228.45776,150.52452l2.28125,0l0,-0.28516c-0.68359,0 -0.83203,-0.33203 -0.83203,-1.33203l0,-8.16406l6.5664,8.99609c0.53125,0.73438 0.76563,0.78516 1.76563,0.78516l0,-9.38281c0,-1 0.13281,-1.33203 0.83203,-1.33203l0,-0.28516l-2.28125,0l0,0.28516c0.68359,0 0.83203,0.33203 0.83203,1.33203l0,8.16797l-6.58203,-9c-0.46875,-0.65235 -0.68359,-0.76954 -1.55078,-0.78516l-1.03125,0l0,0.28516c0.68359,0 0.83203,0.33203 0.83203,1.33203l0,7.76562c0,1 -0.14844,1.33203 -0.83203,1.33203l0,0.28516zm0,0"/>
    </g>
   </g>
  </g>
  <g id="svg_46" fill="#424242">
   <g id="svg_47">
    <g id="svg_48">
     <path fill="#ffffff" id="svg_49" d="m247.696,150.52452l2.83203,0l0,-0.28516c-0.68359,0 -0.83203,-0.33203 -0.83203,-1.33203l0,-7.76562c0,-1 0.14844,-1.33203 0.83203,-1.33203l0,-0.28516l-2.83203,0l0,0.28516c0.68359,0 0.83203,0.33203 0.83203,1.33203l0,7.76562c0,1 -0.14844,1.33203 -0.83203,1.33203l0,0.28516zm0,0"/>
    </g>
   </g>
  </g>
  <g id="svg_50" fill="#424242">
   <g id="svg_51">
    <g id="svg_52">
     <path fill="#ffffff" id="svg_53" d="m259.15125,150.52452l2.31641,0l0,-0.28516c-0.6836,0 -0.83594,-0.33203 -0.83594,-1.33203l0,-7.8164l4.66797,9.43359l1.30078,0l4.66406,-9.43359l0,7.8164c0,1 -0.14844,1.33203 -0.83203,1.33203l0,0.28516l2.83203,0l0,-0.28516c-0.69922,0 -0.83203,-0.33203 -0.83203,-1.33203l0,-7.76562c0,-1 0.13281,-1.33203 0.83203,-1.33203l0,-0.28516l-1.04687,0c-0.6836,0.01562 -0.9336,0.08203 -1.35157,0.94922l-4.61718,9.33594l-4.61719,-9.33594c-0.4336,-0.86719 -0.64844,-0.9336 -1.44922,-0.94922l-1.03125,0l0,0.28516c0.68359,0 0.83203,0.33203 0.83203,1.33203l0,7.76562c0,1 -0.14844,1.33203 -0.83203,1.33203l0,0.28516zm0,0"/>
    </g>
   </g>
  </g>
  <g id="svg_54" fill="#424242">
   <g id="svg_55">
    <g id="svg_56">
     <path fill="#ffffff" id="svg_57" d="m281.5534,150.52452l3.28516,0l0,-0.28516c-1.36719,0 -1.4336,-0.28125 -1.03516,-1.19922l1.56641,-3.73046l4.21875,0l1.5664,3.73046c0.38282,0.91797 0.31641,1.19922 -1.05078,1.19922l0,0.28516l3.89844,0l0,-0.28516c-0.79687,0 -1.19922,-0.28125 -1.58203,-1.19922l-4.01563,-9.51562l-2.63281,0l0,0.28516c1.03125,0 1.14844,0.23046 0.84766,1l-3.48047,8.23046c-0.38281,0.91797 -0.78516,1.19922 -1.58594,1.19922l0,0.28516zm4.08594,-5.81641l1.84766,-4.39843l1.83593,4.39843l-3.68359,0zm0,0"/>
    </g>
   </g>
  </g>
  <g id="svg_58" fill="#424242">
   <g id="svg_59">
    <g id="svg_60">
     <path fill="#ffffff" id="svg_61" d="m302.29419,150.52452l7.59766,0l0.03515,-0.19922l0.28125,-2.06641l-0.26562,-0.03515c-0.21485,1.36719 -0.58203,1.68359 -1.58203,1.68359l-4.06641,0l0,-8.76562c0,-1 0.14844,-1.33203 0.83203,-1.33203l0,-0.28516l-2.83203,0l0,0.28516c0.68359,0 0.83203,0.33203 0.83203,1.33203l0,7.76562c0,1 -0.14844,1.33203 -0.83203,1.33203l0,0.28516zm0,0"/>
    </g>
   </g>
  </g>
  <g id="svg_62" fill="#424242">
   <g id="svg_63">
    <g id="svg_64">
     <path fill="#ffffff" id="svg_65" d="m318.66589,150.52452l2.83203,0l0,-0.28516c-0.68359,0 -0.83203,-0.33203 -0.83203,-1.33203l0,-7.76562c0,-1 0.14844,-1.33203 0.83203,-1.33203l0,-0.28516l-2.83203,0l0,0.28516c0.68359,0 0.83203,0.33203 0.83203,1.33203l0,7.76562c0,1 -0.14844,1.33203 -0.83203,1.33203l0,0.28516zm0,0"/>
    </g>
   </g>
  </g>
  <g id="svg_66" fill="#424242">
   <g id="svg_67">
    <g id="svg_68">
     <path fill="#ffffff" id="svg_69" d="m334.75394,150.69249c2.16406,0 4,-0.76953 4,-2.90235c0,-2.18359 -1.80078,-2.64843 -4.16797,-3.51562c-1.23437,-0.44922 -2.89843,-0.91797 -2.89843,-2.36719c0,-1.26562 1.09765,-1.93359 2.76562,-1.93359c1.98438,0 3.34766,1 2.55078,2.98437l1.16406,0.33203c0.86719,-2.83203 -1.41406,-3.93359 -3.71484,-3.93359c-2.21875,0 -3.93359,0.85156 -3.93359,2.70313c0,2 1.91797,2.53125 3.91797,3.3164c1.71484,0.66406 3.14843,0.89844 3.14843,2.56641c0,1.44922 -1.03125,2.13281 -2.80078,2.13281c-2.09765,0 -4.19922,-0.85156 -3.33203,-3.63281l-1.16797,-0.33594c-0.86719,3.61719 1.91797,4.58594 4.46875,4.58594zm0,0"/>
    </g>
   </g>
  </g>
  <g id="svg_70" fill="#424242">
   <g id="svg_71">
    <g id="svg_72">
     <path fill="#ffffff" id="svg_73" d="m350.34228,150.52452l2.83203,0l0,-0.28516c-0.68359,0 -0.83203,-0.33203 -0.83203,-1.33203l0,-8.76562l2.28125,0c1.01563,0 1.36719,0.3164 1.58594,1.68359l0.26562,-0.03516l-0.28515,-2.0664l-0.03125,-0.19922l-8.80078,0l-0.03125,0.19922l-0.28516,2.0664l0.26563,0.03516c0.21875,-1.36719 0.58593,-1.68359 1.58593,-1.68359l2.28125,0l0,8.76562c0,1 -0.14843,1.33203 -0.83203,1.33203l0,0.28516zm0,0"/>
    </g>
   </g>
  </g>
  <g id="svg_74" fill="#424242">
   <g id="svg_75">
    <g id="svg_76"/>
   </g>
  </g>
  <g id="svg_77" fill="#424242">
   <g id="svg_78">
    <g id="svg_79">
     <path fill="#ffffff" id="svg_80" d="m380.95248,150.69249c2.76563,0 4.39844,-1.4336 4.31641,-4.30078l-1.16797,0.33203c0.16797,2.21875 -1.16797,3.35156 -3.14844,3.35156c-2.41797,0 -3.71875,-1.88281 -3.71875,-5.05078c0,-3.16797 1.46875,-5.05078 3.88281,-5.05078c1.81641,0 3.15235,1.13281 2.98438,3.18359l1.16797,0.33594c0.08203,-2.70313 -1.55078,-4.13672 -4.15235,-4.13672c-3.16406,0 -5.04687,2.08594 -5.04687,5.66797c0,3.58203 1.71484,5.66797 4.88281,5.66797zm0,0"/>
    </g>
   </g>
  </g>
  <g id="svg_81" fill="#424242">
   <g id="svg_82">
    <g id="svg_83">
     <path fill="#ffffff" id="svg_84" d="m393.55536,150.52452l3.28516,0l0,-0.28516c-1.36719,0 -1.4336,-0.28125 -1.03516,-1.19922l1.56641,-3.73046l4.21875,0l1.5664,3.73046c0.38282,0.91797 0.31641,1.19922 -1.05078,1.19922l0,0.28516l3.89844,0l0,-0.28516c-0.79687,0 -1.19922,-0.28125 -1.58203,-1.19922l-4.01563,-9.51562l-2.63281,0l0,0.28516c1.03125,0 1.14844,0.23046 0.84766,1l-3.48047,8.23046c-0.38281,0.91797 -0.78516,1.19922 -1.58594,1.19922l0,0.28516zm4.08594,-5.81641l1.84766,-4.39843l1.83593,4.39843l-3.68359,0zm0,0"/>
    </g>
   </g>
  </g>
  <g id="svg_85" fill="#424242">
   <g id="svg_86">
    <g id="svg_87">
     <path fill="#ffffff" id="svg_88" d="m414.29617,150.52452l2.83203,0l0,-0.28516c-0.68359,0 -0.83203,-0.33203 -0.83203,-1.33203l0,-3.11719l3.08203,0c1,0 1.33203,0.15235 1.33203,0.83594l0.28516,0l0,-2.28515l-0.28516,0c0,0.68359 -0.33203,0.83203 -1.33203,0.83203l-3.08203,0l0,-5.03125l3.96484,0c1,0 1.38282,0.38281 1.63282,2.10156l0.28515,-0.05078l-0.38281,-2.56641l-0.01953,-0.10156l-7.48047,0l0,0.28516c0.68359,0 0.83203,0.33203 0.83203,1.33203l0,7.76562c0,1 -0.14844,1.33203 -0.83203,1.33203l0,0.28516zm0,0"/>
    </g>
   </g>
  </g>
  <g id="svg_89" fill="#424242">
   <g id="svg_90">
    <g id="svg_91">
     <path fill="#ffffff" id="svg_92" d="m430.80118,150.52452l7.59766,0l0.03515,-0.19922l0.28125,-2.06641l-0.26562,-0.03515c-0.21485,1.36719 -0.58203,1.68359 -1.58203,1.68359l-4.06641,0l0,-4.66406l2.71484,0c1,0 1.31641,0.14844 1.31641,0.83203l0.28516,0l0,-2.26562l-0.28516,0c0,0.68359 -0.31641,0.83203 -1.31641,0.83203l-2.71484,0l0,-4.5l3.89844,0c1,0 1.36718,0.3164 1.58203,1.68359l0.26953,-0.03516l-0.28516,-2.0664l-0.03125,-0.19922l-7.43359,0l0,0.28516c0.68359,0 0.83203,0.33203 0.83203,1.33203l0,7.76562c0,1 -0.14844,1.33203 -0.83203,1.33203l0,0.28516zm0,0"/>
    </g>
   </g>
  </g>
 </g>
</svg>